<mxfile host="app.diagrams.net" modified="2022-03-09T22:09:48.045Z" agent="5.0 (Windows)" etag="qI3LaD41Q4sU3xZFkl7c" version="17.0.0" type="github">
  <diagram id="V4IKa1odxzLFifU_mk5T" name="Page-1">
    <mxGraphModel dx="868" dy="450" grid="1" gridSize="10" guides="1" tooltips="1" connect="1" arrows="1" fold="1" page="1" pageScale="1" pageWidth="850" pageHeight="1100" math="0" shadow="0">
      <root>
        <mxCell id="0" />
        <mxCell id="1" parent="0" />
        <mxCell id="kdErqopwrtSOQ1mHXwAu-1" style="edgeStyle=orthogonalEdgeStyle;rounded=0;orthogonalLoop=1;jettySize=auto;html=1;exitX=0.5;exitY=0;exitDx=0;exitDy=0;entryX=0;entryY=0.5;entryDx=0;entryDy=0;strokeWidth=3;" edge="1" parent="1" source="kdErqopwrtSOQ1mHXwAu-2" target="kdErqopwrtSOQ1mHXwAu-5">
          <mxGeometry relative="1" as="geometry" />
        </mxCell>
        <mxCell id="kdErqopwrtSOQ1mHXwAu-2" value="&lt;div&gt;1. Render Environment&lt;/div&gt;" style="ellipse;whiteSpace=wrap;html=1;aspect=fixed;fontSize=24;strokeWidth=3;" vertex="1" parent="1">
          <mxGeometry x="50" y="530" width="150" height="150" as="geometry" />
        </mxCell>
        <mxCell id="kdErqopwrtSOQ1mHXwAu-3" style="edgeStyle=orthogonalEdgeStyle;rounded=0;orthogonalLoop=1;jettySize=auto;html=1;exitX=0.5;exitY=1;exitDx=0;exitDy=0;entryX=0.5;entryY=0;entryDx=0;entryDy=0;strokeWidth=3;" edge="1" parent="1" source="kdErqopwrtSOQ1mHXwAu-5" target="kdErqopwrtSOQ1mHXwAu-9">
          <mxGeometry relative="1" as="geometry" />
        </mxCell>
        <mxCell id="kdErqopwrtSOQ1mHXwAu-4" style="edgeStyle=orthogonalEdgeStyle;rounded=0;orthogonalLoop=1;jettySize=auto;html=1;exitX=0;exitY=1;exitDx=0;exitDy=0;entryX=1;entryY=0;entryDx=0;entryDy=0;strokeWidth=3;" edge="1" parent="1" source="kdErqopwrtSOQ1mHXwAu-5" target="kdErqopwrtSOQ1mHXwAu-2">
          <mxGeometry relative="1" as="geometry" />
        </mxCell>
        <mxCell id="kdErqopwrtSOQ1mHXwAu-5" value="&lt;div&gt;2. Render&lt;/div&gt;&lt;div&gt;Game&lt;/div&gt;&lt;div&gt;Object&lt;br&gt;&lt;/div&gt;" style="ellipse;whiteSpace=wrap;html=1;aspect=fixed;fontSize=24;strokeWidth=3;" vertex="1" parent="1">
          <mxGeometry x="340" y="310" width="150" height="150" as="geometry" />
        </mxCell>
        <mxCell id="kdErqopwrtSOQ1mHXwAu-6" style="edgeStyle=orthogonalEdgeStyle;rounded=0;orthogonalLoop=1;jettySize=auto;html=1;exitX=0.5;exitY=1;exitDx=0;exitDy=0;entryX=0.5;entryY=0;entryDx=0;entryDy=0;strokeWidth=3;" edge="1" parent="1" source="kdErqopwrtSOQ1mHXwAu-9" target="kdErqopwrtSOQ1mHXwAu-11">
          <mxGeometry relative="1" as="geometry" />
        </mxCell>
        <mxCell id="kdErqopwrtSOQ1mHXwAu-7" style="edgeStyle=orthogonalEdgeStyle;rounded=0;orthogonalLoop=1;jettySize=auto;html=1;exitX=0;exitY=0.5;exitDx=0;exitDy=0;entryX=1;entryY=0.5;entryDx=0;entryDy=0;strokeWidth=3;" edge="1" parent="1" source="kdErqopwrtSOQ1mHXwAu-9" target="kdErqopwrtSOQ1mHXwAu-2">
          <mxGeometry relative="1" as="geometry" />
        </mxCell>
        <mxCell id="kdErqopwrtSOQ1mHXwAu-8" value="&lt;div&gt;Rendered&lt;/div&gt;&lt;div&gt;Npc&lt;br&gt;&lt;/div&gt;" style="edgeLabel;html=1;align=center;verticalAlign=middle;resizable=0;points=[];fontSize=16;" vertex="1" connectable="0" parent="kdErqopwrtSOQ1mHXwAu-7">
          <mxGeometry x="-0.1357" y="-1" relative="1" as="geometry">
            <mxPoint as="offset" />
          </mxGeometry>
        </mxCell>
        <mxCell id="kdErqopwrtSOQ1mHXwAu-9" value="&lt;div&gt;3. Spawn NPC&lt;br&gt;&lt;/div&gt;" style="ellipse;whiteSpace=wrap;html=1;aspect=fixed;fontSize=24;strokeWidth=3;" vertex="1" parent="1">
          <mxGeometry x="340" y="530" width="150" height="150" as="geometry" />
        </mxCell>
        <mxCell id="kdErqopwrtSOQ1mHXwAu-10" value="&lt;font style=&quot;font-size: 16px&quot;&gt;Rendered Player&lt;/font&gt;" style="edgeStyle=orthogonalEdgeStyle;rounded=0;orthogonalLoop=1;jettySize=auto;html=1;exitX=0;exitY=0.5;exitDx=0;exitDy=0;entryX=0.5;entryY=1;entryDx=0;entryDy=0;strokeWidth=3;" edge="1" parent="1" source="kdErqopwrtSOQ1mHXwAu-11" target="kdErqopwrtSOQ1mHXwAu-2">
          <mxGeometry x="-0.3714" relative="1" as="geometry">
            <mxPoint as="offset" />
          </mxGeometry>
        </mxCell>
        <mxCell id="kdErqopwrtSOQ1mHXwAu-11" value="&lt;div&gt;4. Spawn Player&lt;br&gt;&lt;/div&gt;" style="ellipse;whiteSpace=wrap;html=1;aspect=fixed;fontSize=24;strokeWidth=3;" vertex="1" parent="1">
          <mxGeometry x="340" y="740" width="150" height="150" as="geometry" />
        </mxCell>
        <mxCell id="kdErqopwrtSOQ1mHXwAu-12" value="&lt;font style=&quot;font-size: 16px&quot;&gt;Confirmation&lt;/font&gt;" style="text;html=1;align=center;verticalAlign=middle;resizable=0;points=[];autosize=1;strokeColor=none;fillColor=none;" vertex="1" parent="1">
          <mxGeometry x="169" y="365" width="110" height="20" as="geometry" />
        </mxCell>
        <mxCell id="kdErqopwrtSOQ1mHXwAu-13" value="Rendered Objects" style="text;html=1;align=center;verticalAlign=middle;resizable=0;points=[];autosize=1;strokeColor=none;fillColor=none;fontSize=16;" vertex="1" parent="1">
          <mxGeometry x="200" y="420" width="140" height="20" as="geometry" />
        </mxCell>
        <mxCell id="kdErqopwrtSOQ1mHXwAu-14" value="Forward information" style="text;html=1;align=center;verticalAlign=middle;resizable=0;points=[];autosize=1;strokeColor=none;fillColor=none;fontSize=16;" vertex="1" parent="1">
          <mxGeometry x="345" y="480" width="160" height="20" as="geometry" />
        </mxCell>
        <mxCell id="kdErqopwrtSOQ1mHXwAu-15" value="Forward Information" style="text;html=1;align=center;verticalAlign=middle;resizable=0;points=[];autosize=1;strokeColor=none;fillColor=none;fontSize=16;" vertex="1" parent="1">
          <mxGeometry x="345" y="700" width="160" height="20" as="geometry" />
        </mxCell>
      </root>
    </mxGraphModel>
  </diagram>
</mxfile>
